<svg xmlns="http://www.w3.org/2000/svg" width="136" height="41" fill="none" viewBox="0 0 136 41"><path fill="#000" d="M130.632 40.194H5.024C2.211 40.194 0 37.984 0 35.17V5.024C0 2.211 2.21 0 5.024 0h125.608c2.813 0 5.024 2.21 5.024 5.024V35.17c0 2.814-2.211 5.024-5.024 5.024Z"/><path fill="#A6A6A6" d="M130.632.804c2.311 0 4.22 1.91 4.22 4.22V35.17c0 2.311-1.909 4.22-4.22 4.22H5.024c-2.31 0-4.22-1.909-4.22-4.22V5.024c0-2.31 1.91-4.22 4.22-4.22h125.608Zm0-.804H5.024C2.211 0 0 2.311 0 5.024V35.17c0 2.814 2.21 5.024 5.024 5.024h125.608c2.813 0 5.024-2.21 5.024-5.024V5.024c0-2.713-2.211-5.024-5.024-5.024Z"/><path fill="#fff" d="M47.63 10.25c0 .803-.2 1.507-.703 2.01-.603.602-1.306.904-2.21.904-.905 0-1.608-.302-2.211-.905-.603-.603-.904-1.306-.904-2.21 0-.905.301-1.608.904-2.211.603-.603 1.306-.904 2.21-.904.403 0 .804.1 1.206.301.402.201.704.402.905.703l-.503.503c-.401-.503-.904-.704-1.607-.704-.603 0-1.206.201-1.608.704-.503.402-.703 1.005-.703 1.708 0 .704.2 1.307.703 1.708.502.402 1.005.704 1.608.704.703 0 1.206-.201 1.708-.704.301-.301.502-.703.502-1.205h-2.21v-.804h2.914v.402Zm4.623-2.513H49.54v1.91h2.512v.703H49.54v1.91h2.713v.803h-3.517V7.034h3.517v.703Zm3.316 5.326h-.804V7.737h-1.708v-.703h4.22v.703H55.57v5.326Zm4.622 0V7.034h.804v6.03h-.803Zm4.22 0h-.803V7.737H61.9v-.703h4.12v.703H64.31v5.326h.1Zm9.547-.804c-.603.603-1.306.905-2.21.905-.905 0-1.608-.302-2.211-.905-.603-.603-.905-1.306-.905-2.21 0-.905.302-1.608.905-2.211.603-.603 1.306-.904 2.21-.904.905 0 1.608.301 2.211.904.603.603.904 1.306.904 2.21 0 .905-.301 1.608-.904 2.211Zm-3.818-.502c.401.402 1.004.703 1.607.703s1.206-.2 1.608-.703a2.424 2.424 0 0 0 .703-1.708c0-.704-.2-1.307-.703-1.709-.402-.402-1.005-.703-1.608-.703-.603 0-1.206.201-1.607.703a2.424 2.424 0 0 0-.704 1.709c0 .703.201 1.306.704 1.708Zm5.828 1.306V7.034h.904l2.914 4.723V7.034h.804v6.03h-.804l-3.115-4.925v4.924h-.703ZM68.432 21.906c-2.412 0-4.32 1.809-4.32 4.32 0 2.413 1.908 4.322 4.32 4.322 2.412 0 4.32-1.809 4.32-4.321 0-2.613-1.908-4.321-4.32-4.321Zm0 6.833c-1.306 0-2.412-1.105-2.412-2.613 0-1.507 1.106-2.612 2.412-2.612 1.306 0 2.412 1.005 2.412 2.612 0 1.508-1.106 2.613-2.412 2.613Zm-9.345-6.833c-2.412 0-4.321 1.809-4.321 4.32 0 2.413 1.91 4.322 4.32 4.322 2.413 0 4.322-1.809 4.322-4.321 0-2.613-1.91-4.321-4.321-4.321Zm0 6.833c-1.306 0-2.412-1.105-2.412-2.613 0-1.507 1.106-2.612 2.412-2.612 1.306 0 2.411 1.005 2.411 2.612 0 1.508-1.105 2.613-2.411 2.613Zm-11.154-5.527v1.809h4.32c-.1 1.005-.502 1.809-1.004 2.311-.603.603-1.608 1.306-3.316 1.306-2.713 0-4.723-2.11-4.723-4.823 0-2.713 2.11-4.823 4.723-4.823 1.407 0 2.512.603 3.316 1.306l1.306-1.306c-1.105-1.005-2.512-1.809-4.522-1.809-3.617 0-6.732 3.015-6.732 6.632 0 3.618 3.115 6.632 6.732 6.632 2.01 0 3.417-.603 4.623-1.909 1.206-1.206 1.608-2.914 1.608-4.22 0-.402 0-.804-.101-1.106h-6.23Zm45.62 1.407c-.401-1.005-1.406-2.713-3.617-2.713-2.21 0-4.02 1.708-4.02 4.32 0 2.413 1.81 4.322 4.221 4.322 1.91 0 3.115-1.206 3.517-1.91l-1.407-1.004c-.502.703-1.105 1.206-2.11 1.206s-1.608-.402-2.11-1.307l5.727-2.412-.2-.502Zm-5.828 1.407c0-1.608 1.307-2.512 2.211-2.512.703 0 1.407.402 1.608.904l-3.819 1.608Zm-4.722 4.12h1.909V17.585h-1.91v12.56Zm-3.015-7.336c-.502-.502-1.306-1.005-2.311-1.005-2.11 0-4.12 1.91-4.12 4.321 0 2.412 1.909 4.22 4.12 4.22 1.005 0 1.808-.502 2.21-1.004h.1v.603c0 1.608-.903 2.512-2.31 2.512-1.106 0-1.91-.804-2.11-1.507l-1.608.703c.502 1.105 1.708 2.512 3.818 2.512 2.21 0 4.02-1.306 4.02-4.421v-7.637h-1.81v.703Zm-2.21 5.929c-1.307 0-2.413-1.105-2.413-2.613 0-1.507 1.106-2.612 2.412-2.612 1.306 0 2.311 1.105 2.311 2.612 0 1.508-1.004 2.613-2.31 2.613Zm24.518-11.154h-4.522v12.56h1.91v-4.722h2.612c2.11 0 4.12-1.507 4.12-3.919s-2.01-3.919-4.12-3.919Zm.1 6.03h-2.713v-4.322h2.713c1.407 0 2.211 1.206 2.211 2.11-.101 1.106-.904 2.211-2.211 2.211Zm11.556-1.81c-1.407 0-2.813.603-3.316 1.91l1.708.703c.402-.703 1.005-.904 1.709-.904 1.005 0 1.909.603 2.009 1.608v.1c-.301-.201-1.105-.502-1.909-.502-1.809 0-3.617 1.004-3.617 2.813 0 1.708 1.507 2.814 3.115 2.814 1.306 0 1.909-.603 2.411-1.206h.101v1.005h1.809v-4.823c-.201-2.211-1.91-3.518-4.02-3.518Zm-.201 6.934c-.603 0-1.507-.302-1.507-1.105 0-1.005 1.105-1.307 2.01-1.307.804 0 1.205.201 1.708.402-.201 1.206-1.206 2.01-2.211 2.01Zm10.551-6.632-2.11 5.426h-.1l-2.211-5.426h-2.01l3.316 7.637-1.909 4.22h1.909l5.125-11.857h-2.01Zm-16.881 8.039h1.909V17.585h-1.909v12.56Z"/><path fill="url(#paint0_linear_6137_14074)" d="M10.449 7.536c-.302.302-.402.804-.402 1.407V31.15c0 .603.2 1.106.502 1.407l.1.1 12.461-12.46v-.2L10.45 7.536Z"/><path fill="url(#paint1_linear_6137_14074)" d="m27.132 24.417-4.12-4.12v-.302l4.12-4.12.1.101 4.924 2.814c1.407.803 1.407 2.11 0 2.914l-5.024 2.713Z"/><path fill="url(#paint2_linear_6137_14074)" d="m27.234 24.318-4.22-4.22-12.56 12.56c.502.502 1.205.502 2.11.1l14.67-8.44Z"/><path fill="url(#paint3_linear_6137_14074)" d="m27.234 15.876-14.67-8.34c-.905-.503-1.608-.402-2.11.1l12.56 12.46 4.22-4.22Z"/><path fill="#000" d="m27.134 24.217-14.57 8.24c-.805.502-1.508.402-2.01 0l-.1.1.1.1c.502.403 1.205.503 2.01 0l14.57-8.44Z" opacity=".2"/><path fill="#000" d="M10.449 32.457c-.302-.301-.402-.804-.402-1.407v.1c0 .604.2 1.106.502 1.407v-.1h-.1Zm21.705-11.053-5.025 2.813.101.1 4.924-2.813c.703-.402 1.005-.904 1.005-1.407 0 .503-.402.904-1.005 1.306Z" opacity=".12"/><path fill="#fff" d="M12.559 7.637 32.154 18.79c.603.401 1.005.803 1.005 1.306 0-.503-.302-1.005-1.005-1.407L12.559 7.536c-1.407-.804-2.512-.2-2.512 1.407v.1c0-1.507 1.105-2.21 2.512-1.406Z" opacity=".25"/><defs><linearGradient id="paint0_linear_6137_14074" x1="21.904" x2="5.04" y1="8.752" y2="25.616" gradientUnits="userSpaceOnUse"><stop stop-color="#00A0FF"/><stop offset=".007" stop-color="#00A1FF"/><stop offset=".26" stop-color="#00BEFF"/><stop offset=".512" stop-color="#00D2FF"/><stop offset=".76" stop-color="#00DFFF"/><stop offset="1" stop-color="#00E3FF"/></linearGradient><linearGradient id="paint1_linear_6137_14074" x1="33.999" x2="9.684" y1="20.097" y2="20.097" gradientUnits="userSpaceOnUse"><stop stop-color="#FFE000"/><stop offset=".409" stop-color="#FFBD00"/><stop offset=".775" stop-color="orange"/><stop offset="1" stop-color="#FF9C00"/></linearGradient><linearGradient id="paint2_linear_6137_14074" x1="24.95" x2="2.082" y1="22.404" y2="45.273" gradientUnits="userSpaceOnUse"><stop stop-color="#FF3A44"/><stop offset="1" stop-color="#C31162"/></linearGradient><linearGradient id="paint3_linear_6137_14074" x1="7.335" x2="17.547" y1=".176" y2="10.389" gradientUnits="userSpaceOnUse"><stop stop-color="#32A071"/><stop offset=".069" stop-color="#2DA771"/><stop offset=".476" stop-color="#15CF74"/><stop offset=".801" stop-color="#06E775"/><stop offset="1" stop-color="#00F076"/></linearGradient></defs></svg>