<svg xmlns="http://www.w3.org/2000/svg" width="90" height="90" fill="none" viewBox="0 0 90 90"><g clip-path="url(#clip0_6909_31709)"><path fill="#fff" d="M90 0H0v90h90V0Z"/><path fill="#000" d="M3.332 3.333h3.333v3.334H3.332V3.334Zm3.333 0H10v3.334H6.665V3.334Zm3.334 0h3.333v3.334H9.999V3.334Zm3.333 0h3.333v3.334h-3.333V3.334Zm3.333 0H20v3.334h-3.334V3.334Zm3.334 0h3.333v3.334h-3.333V3.334Zm3.333 0h3.333v3.334h-3.333V3.334Zm6.667 0h3.333v3.334h-3.333V3.334Zm6.666 0H40v3.334h-3.334V3.334Zm6.667 0h3.333v3.334h-3.333V3.334Zm3.333 0H50v3.334h-3.334V3.334Zm10 0H60v3.334h-3.334V3.334Zm6.667 0h3.333v3.334h-3.333V3.334Zm3.333 0H70v3.334h-3.334V3.334Zm3.334 0h3.333v3.334h-3.333V3.334Zm3.333 0h3.333v3.334h-3.333V3.334Zm3.333 0H80v3.334h-3.334V3.334Zm3.334 0h3.333v3.334h-3.333V3.334Zm3.333 0h3.333v3.334h-3.333V3.334Zm-80 3.334h3.333V10H3.332V6.667Zm20 0h3.333V10h-3.333V6.667Zm10 0h3.333V10h-3.333V6.667Zm3.333 0H40V10h-3.334V6.667Zm3.334 0h3.333V10h-3.333V6.667Zm3.333 0h3.333V10h-3.333V6.667Zm3.333 0H50V10h-3.334V6.667Zm16.667 0h3.333V10h-3.333V6.667Zm20 0h3.333V10h-3.333V6.667ZM3.332 10h3.333v3.334H3.332V10Zm6.667 0h3.333v3.334H9.999V10Zm3.333 0h3.333v3.334h-3.333V10Zm3.333 0H20v3.334h-3.334V10Zm6.667 0h3.333v3.334h-3.333V10Zm6.667 0h3.333v3.334h-3.333V10Zm3.333 0h3.333v3.334h-3.333V10Zm3.333 0H40v3.334h-3.334V10Zm10 0H50v3.334h-3.334V10ZM50 10h3.333v3.334h-3.333V10Zm13.333 0h3.333v3.334h-3.333V10Zm6.667 0h3.333v3.334h-3.333V10Zm3.333 0h3.333v3.334h-3.333V10Zm3.333 0H80v3.334h-3.334V10Zm6.667 0h3.333v3.334h-3.333V10Zm-80 3.334h3.333v3.333H3.332v-3.334Zm6.667 0h3.333v3.333H9.999v-3.334Zm3.333 0h3.333v3.333h-3.333v-3.334Zm3.333 0H20v3.333h-3.334v-3.334Zm6.667 0h3.333v3.333h-3.333v-3.334Zm6.667 0h3.333v3.333h-3.333v-3.334Zm3.333 0h3.333v3.333h-3.333v-3.334Zm3.333 0H40v3.333h-3.334v-3.334Zm6.667 0h3.333v3.333h-3.333v-3.334Zm3.333 0H50v3.333h-3.334v-3.334Zm6.667 0h3.333v3.333h-3.333v-3.334Zm3.333 0H60v3.333h-3.334v-3.334Zm6.667 0h3.333v3.333h-3.333v-3.334Zm6.667 0h3.333v3.333h-3.333v-3.334Zm3.333 0h3.333v3.333h-3.333v-3.334Zm3.333 0H80v3.333h-3.334v-3.334Zm6.667 0h3.333v3.333h-3.333v-3.334Zm-80 3.333h3.333V20H3.332v-3.333Zm6.667 0h3.333V20H9.999v-3.333Zm3.333 0h3.333V20h-3.333v-3.333Zm3.333 0H20V20h-3.334v-3.333Zm6.667 0h3.333V20h-3.333v-3.333Zm6.667 0h3.333V20h-3.333v-3.333Zm10 0h3.333V20h-3.333v-3.333Zm3.333 0h3.333V20h-3.333v-3.333Zm3.333 0H50V20h-3.334v-3.333Zm3.334 0h3.333V20h-3.333v-3.333Zm3.333 0h3.333V20h-3.333v-3.333Zm3.333 0H60V20h-3.334v-3.333Zm6.667 0h3.333V20h-3.333v-3.333Zm6.667 0h3.333V20h-3.333v-3.333Zm3.333 0h3.333V20h-3.333v-3.333Zm3.333 0H80V20h-3.334v-3.333Zm6.667 0h3.333V20h-3.333v-3.333ZM3.332 20h3.333v3.334H3.332V20Zm20 0h3.333v3.334h-3.333V20Zm13.333 0H40v3.334h-3.334V20ZM40 20h3.333v3.334h-3.333V20Zm10 0h3.333v3.334h-3.333V20Zm6.666 0H60v3.334h-3.334V20Zm6.667 0h3.333v3.334h-3.333V20Zm20 0h3.333v3.334h-3.333V20Zm-80 3.334h3.333v3.333H3.332v-3.334Zm3.333 0H10v3.333H6.665v-3.334Zm3.334 0h3.333v3.333H9.999v-3.334Zm3.333 0h3.333v3.333h-3.333v-3.334Zm3.333 0H20v3.333h-3.334v-3.334Zm3.334 0h3.333v3.333h-3.333v-3.334Zm3.333 0h3.333v3.333h-3.333v-3.334Zm6.667 0h3.333v3.333h-3.333v-3.334Zm6.666 0H40v3.333h-3.334v-3.334Zm6.667 0h3.333v3.333h-3.333v-3.334Zm6.667 0h3.333v3.333h-3.333v-3.334Zm6.666 0H60v3.333h-3.334v-3.334Zm6.667 0h3.333v3.333h-3.333v-3.334Zm3.333 0H70v3.333h-3.334v-3.334Zm3.334 0h3.333v3.333h-3.333v-3.334Zm3.333 0h3.333v3.333h-3.333v-3.334Zm3.333 0H80v3.333h-3.334v-3.334Zm3.334 0h3.333v3.333h-3.333v-3.334Zm3.333 0h3.333v3.333h-3.333v-3.334Zm-46.667 3.333H40V30h-3.334v-3.333Zm6.667 0h3.333V30h-3.333v-3.333Zm10 0h3.333V30h-3.333v-3.333Zm3.333 0H60V30h-3.334v-3.333ZM3.332 30h3.333v3.334H3.332V30Zm3.333 0H10v3.334H6.665V30ZM10 30h3.333v3.334H9.999V30Zm3.333 0h3.333v3.334h-3.333V30Zm10 0h3.333v3.334h-3.333V30Zm6.667 0h3.333v3.334h-3.333V30Zm6.666 0H40v3.334h-3.334V30ZM40 30h3.333v3.334h-3.333V30Zm3.333 0h3.333v3.334h-3.333V30Zm6.667 0h3.333v3.334h-3.333V30Zm3.333 0h3.333v3.334h-3.333V30Zm3.333 0H60v3.334h-3.334V30ZM60 30h3.333v3.334h-3.333V30Zm10 0h3.333v3.334h-3.333V30Zm3.333 0h3.333v3.334h-3.333V30Zm3.333 0H80v3.334h-3.334V30Zm6.667 0h3.333v3.334h-3.333V30ZM9.999 33.334h3.333v3.333H9.999v-3.334Zm3.333 0h3.333v3.333h-3.333v-3.334Zm6.667 0h3.333v3.333h-3.333v-3.334Zm10 0h3.333v3.333h-3.333v-3.334Zm6.666 0H40v3.333h-3.334v-3.334Zm6.667 0h3.333v3.333h-3.333v-3.334Zm6.667 0h3.333v3.333h-3.333v-3.334Zm16.666 0H70v3.333h-3.334v-3.334Zm13.334 0h3.333v3.333h-3.333v-3.334ZM3.332 36.666h3.333V40H3.332v-3.333Zm10 0h3.333V40h-3.333v-3.333Zm6.667 0h3.333V40h-3.333v-3.333Zm3.333 0h3.333V40h-3.333v-3.333Zm3.333 0H30V40h-3.334v-3.333Zm6.667 0h3.333V40h-3.333v-3.333Zm3.333 0H40V40h-3.334v-3.333Zm3.334 0h3.333V40h-3.333v-3.333Zm3.333 0h3.333V40h-3.333v-3.333Zm3.333 0H50V40h-3.334v-3.333Zm10 0H60V40h-3.334v-3.333Zm6.667 0h3.333V40h-3.333v-3.333Zm3.333 0H70V40h-3.334v-3.333ZM6.665 40H10v3.334H6.665V40Zm6.667 0h3.333v3.334h-3.333V40Zm3.333 0H20v3.334h-3.334V40Zm10 0H30v3.334h-3.334V40ZM30 40h3.333v3.334h-3.333V40Zm3.333 0h3.333v3.334h-3.333V40Zm3.333 0H40v3.334h-3.334V40Zm10 0H50v3.334h-3.334V40ZM50 40h3.333v3.334h-3.333V40Zm3.333 0h3.333v3.334h-3.333V40Zm3.333 0H60v3.334h-3.334V40Zm6.667 0h3.333v3.334h-3.333V40Zm6.667 0h3.333v3.334h-3.333V40Zm3.333 0h3.333v3.334h-3.333V40Zm3.333 0H80v3.334h-3.334V40ZM3.332 43.334h3.333v3.333H3.332v-3.334Zm6.667 0h3.333v3.333H9.999v-3.334Zm13.333 0h3.333v3.333h-3.333v-3.334Zm6.667 0h3.333v3.333h-3.333v-3.334Zm3.333 0h3.333v3.333h-3.333v-3.334Zm3.333 0H40v3.333h-3.334v-3.334Zm6.667 0h3.333v3.333h-3.333v-3.334Zm3.333 0H50v3.333h-3.334v-3.334Zm13.334 0h3.333v3.333h-3.333v-3.334Zm3.333 0h3.333v3.333h-3.333v-3.334Zm6.667 0h3.333v3.333h-3.333v-3.334Zm6.666 0H80v3.333h-3.334v-3.334Zm3.334 0h3.333v3.333h-3.333v-3.334Zm3.333 0h3.333v3.333h-3.333v-3.334ZM6.665 46.666H10V50H6.665v-3.333Zm6.667 0h3.333V50h-3.333v-3.333Zm6.667 0h3.333V50h-3.333v-3.333Zm20 0h3.333V50h-3.333v-3.333Zm3.333 0h3.333V50h-3.333v-3.333Zm10 0h3.333V50h-3.333v-3.333Zm3.333 0H60V50h-3.334v-3.333Zm3.334 0h3.333V50h-3.333v-3.333Zm3.333 0h3.333V50h-3.333v-3.333Zm3.333 0H70V50h-3.334v-3.333Zm3.334 0h3.333V50h-3.333v-3.333Zm13.333 0h3.333V50h-3.333v-3.333ZM6.665 50H10v3.334H6.665V50Zm6.667 0h3.333v3.334h-3.333V50Zm6.667 0h3.333v3.334h-3.333V50Zm3.333 0h3.333v3.334h-3.333V50Zm3.333 0H30v3.334h-3.334V50ZM30 50h3.333v3.334h-3.333V50Zm3.333 0h3.333v3.334h-3.333V50Zm6.667 0h3.333v3.334h-3.333V50Zm6.666 0H50v3.334h-3.334V50ZM50 50h3.333v3.334h-3.333V50Zm6.666 0H60v3.334h-3.334V50ZM60 50h3.333v3.334h-3.333V50Zm10 0h3.333v3.334h-3.333V50Zm6.666 0H80v3.334h-3.334V50ZM80 50h3.333v3.334h-3.333V50ZM3.332 53.334h3.333v3.333H3.332v-3.334Zm6.667 0h3.333v3.333H9.999v-3.334Zm3.333 0h3.333v3.333h-3.333v-3.334Zm6.667 0h3.333v3.333h-3.333v-3.334Zm16.666 0H40v3.333h-3.334v-3.334Zm3.334 0h3.333v3.333h-3.333v-3.334Zm10 0h3.333v3.333h-3.333v-3.334Zm6.666 0H60v3.333h-3.334v-3.334Zm3.334 0h3.333v3.333h-3.333v-3.334Zm3.333 0h3.333v3.333h-3.333v-3.334Zm3.333 0H70v3.333h-3.334v-3.334Zm3.334 0h3.333v3.333h-3.333v-3.334Zm13.333 0h3.333v3.333h-3.333v-3.334Zm-70 3.333h3.333V60h-3.333v-3.333Zm6.667 0h3.333V60h-3.333v-3.333Zm3.333 0h3.333V60h-3.333v-3.333Zm6.667 0h3.333V60h-3.333v-3.333Zm3.333 0h3.333V60h-3.333v-3.333Zm13.333 0H50V60h-3.334v-3.333Zm3.334 0h3.333V60h-3.333v-3.333Zm3.333 0h3.333V60h-3.333v-3.333Zm3.333 0H60V60h-3.334v-3.333Zm3.334 0h3.333V60h-3.333v-3.333Zm3.333 0h3.333V60h-3.333v-3.333Zm3.333 0H70V60h-3.334v-3.333Zm3.334 0h3.333V60h-3.333v-3.333Zm3.333 0h3.333V60h-3.333v-3.333Zm3.333 0H80V60h-3.334v-3.333Zm3.334 0h3.333V60h-3.333v-3.333Zm3.333 0h3.333V60h-3.333v-3.333ZM29.999 60h3.333v3.334h-3.333V60Zm6.666 0H40v3.334h-3.334V60Zm10 0H50v3.334h-3.334V60ZM50 60h3.333v3.334h-3.333V60Zm6.666 0H60v3.334h-3.334V60ZM70 60h3.333v3.334h-3.333V60Zm6.666 0H80v3.334h-3.334V60Zm6.667 0h3.333v3.334h-3.333V60Zm-80 3.334h3.333v3.333H3.332v-3.334Zm3.333 0H10v3.333H6.665v-3.334Zm3.334 0h3.333v3.333H9.999v-3.334Zm3.333 0h3.333v3.333h-3.333v-3.334Zm3.333 0H20v3.333h-3.334v-3.334Zm3.334 0h3.333v3.333h-3.333v-3.334Zm3.333 0h3.333v3.333h-3.333v-3.334Zm10 0h3.333v3.333h-3.333v-3.334Zm10 0h3.333v3.333h-3.333v-3.334Zm6.667 0h3.333v3.333h-3.333v-3.334Zm6.666 0H60v3.333h-3.334v-3.334Zm6.667 0h3.333v3.333h-3.333v-3.334Zm6.667 0h3.333v3.333h-3.333v-3.334Zm6.666 0H80v3.333h-3.334v-3.334Zm3.334 0h3.333v3.333h-3.333v-3.334Zm3.333 0h3.333v3.333h-3.333v-3.334Zm-80 3.333h3.333V70H3.332v-3.333Zm20 0h3.333V70h-3.333v-3.333Zm13.333 0H40V70h-3.334v-3.333Zm13.334 0h3.333V70h-3.333v-3.333Zm3.333 0h3.333V70h-3.333v-3.333Zm3.333 0H60V70h-3.334v-3.333Zm13.334 0h3.333V70h-3.333v-3.333ZM3.332 70h3.333v3.334H3.332V70Zm6.667 0h3.333v3.334H9.999V70Zm3.333 0h3.333v3.334h-3.333V70Zm3.333 0H20v3.334h-3.334V70Zm6.667 0h3.333v3.334h-3.333V70Zm16.667 0h3.333v3.334h-3.333V70Zm3.333 0h3.333v3.334h-3.333V70Zm6.667 0h3.333v3.334h-3.333V70Zm6.666 0H60v3.334h-3.334V70ZM60 70h3.333v3.334h-3.333V70Zm3.333 0h3.333v3.334h-3.333V70Zm3.333 0H70v3.334h-3.334V70ZM70 70h3.333v3.334h-3.333V70Zm3.333 0h3.333v3.334h-3.333V70Zm10 0h3.333v3.334h-3.333V70Zm-80 3.334h3.333v3.333H3.332v-3.334Zm6.667 0h3.333v3.333H9.999v-3.334Zm3.333 0h3.333v3.333h-3.333v-3.334Zm3.333 0H20v3.333h-3.334v-3.334Zm6.667 0h3.333v3.333h-3.333v-3.334Zm6.667 0h3.333v3.333h-3.333v-3.334Zm10 0h3.333v3.333h-3.333v-3.334Zm10 0h3.333v3.333h-3.333v-3.334Zm10 0h3.333v3.333h-3.333v-3.334Zm3.333 0h3.333v3.333h-3.333v-3.334Zm6.667 0h3.333v3.333h-3.333v-3.334Zm3.333 0h3.333v3.333h-3.333v-3.334Zm3.333 0H80v3.333h-3.334v-3.334Zm3.334 0h3.333v3.333h-3.333v-3.334Zm3.333 0h3.333v3.333h-3.333v-3.334Zm-80 3.333h3.333V80H3.332v-3.333Zm6.667 0h3.333V80H9.999v-3.333Zm3.333 0h3.333V80h-3.333v-3.333Zm3.333 0H20V80h-3.334v-3.333Zm6.667 0h3.333V80h-3.333v-3.333Zm6.667 0h3.333V80h-3.333v-3.333Zm3.333 0h3.333V80h-3.333v-3.333Zm6.667 0h3.333V80h-3.333v-3.333Zm16.666 0H60V80h-3.334v-3.333Zm3.334 0h3.333V80h-3.333v-3.333Zm3.333 0h3.333V80h-3.333v-3.333Zm6.667 0h3.333V80h-3.333v-3.333Zm6.666 0H80V80h-3.334v-3.333Zm3.334 0h3.333V80h-3.333v-3.333ZM3.332 80h3.333v3.334H3.332V80Zm20 0h3.333v3.334h-3.333V80Zm6.667 0h3.333v3.334h-3.333V80Zm3.333 0h3.333v3.334h-3.333V80Zm13.333 0H50v3.334h-3.334V80ZM50 80h3.333v3.334h-3.333V80Zm10 0h3.333v3.334h-3.333V80Zm3.333 0h3.333v3.334h-3.333V80Zm6.667 0h3.333v3.334h-3.333V80Zm6.666 0H80v3.334h-3.334V80ZM3.332 83.334h3.333v3.333H3.332v-3.334Zm3.333 0H10v3.333H6.665v-3.334Zm3.334 0h3.333v3.333H9.999v-3.334Zm3.333 0h3.333v3.333h-3.333v-3.334Zm3.333 0H20v3.333h-3.334v-3.334Zm3.334 0h3.333v3.333h-3.333v-3.334Zm3.333 0h3.333v3.333h-3.333v-3.334Zm6.667 0h3.333v3.333h-3.333v-3.334Zm3.333 0h3.333v3.333h-3.333v-3.334Zm6.667 0h3.333v3.333h-3.333v-3.334Zm3.333 0h3.333v3.333h-3.333v-3.334Zm3.333 0H50v3.333h-3.334v-3.334Zm3.334 0h3.333v3.333h-3.333v-3.334Zm13.333 0h3.333v3.333h-3.333v-3.334Zm3.333 0H70v3.333h-3.334v-3.334Zm3.334 0h3.333v3.333h-3.333v-3.334Zm3.333 0h3.333v3.333h-3.333v-3.334Zm3.333 0H80v3.333h-3.334v-3.334Zm3.334 0h3.333v3.333h-3.333v-3.334Zm3.333 0h3.333v3.333h-3.333v-3.334Z"/></g><defs><clipPath id="clip0_6909_31709"><path fill="#fff" d="M0 0h90v90H0z"/></clipPath></defs></svg>