<svg xmlns="http://www.w3.org/2000/svg" width="136" height="41" fill="none" viewBox="0 0 136 41"><path fill="#fff" d="M134.756 35.644a3.854 3.854 0 0 1-3.855 3.85H4.754a3.856 3.856 0 0 1-3.86-3.85v-30.7a3.86 3.86 0 0 1 3.86-3.855H130.9a3.857 3.857 0 0 1 3.855 3.855l.001 30.7Z"/><path fill="#A6A6A6" d="M130.902 40.389H4.755A4.756 4.756 0 0 1 0 35.644v-30.7A4.757 4.757 0 0 1 4.755.195H130.9a4.76 4.76 0 0 1 4.754 4.75v30.7c.002 2.617-2.134 4.745-4.753 4.745Z"/><path fill="#000" d="M134.756 35.644a3.854 3.854 0 0 1-3.855 3.85H4.754a3.856 3.856 0 0 1-3.86-3.85v-30.7a3.86 3.86 0 0 1 3.86-3.855H130.9a3.857 3.857 0 0 1 3.855 3.855l.001 30.7Z"/><path fill="#fff" d="M30.29 20.08c-.03-3.239 2.652-4.815 2.775-4.888-1.52-2.215-3.874-2.517-4.701-2.541-1.978-.208-3.896 1.183-4.904 1.183-1.027 0-2.578-1.163-4.25-1.13-2.152.034-4.165 1.28-5.269 3.213-2.278 3.943-.579 9.738 1.604 12.925 1.092 1.562 2.368 3.304 4.038 3.243 1.633-.066 2.244-1.04 4.215-1.04 1.954 0 2.527 1.04 4.23 1 1.753-.026 2.857-1.567 3.911-3.142 1.262-1.788 1.769-3.551 1.789-3.642-.04-.014-3.405-1.299-3.439-5.18Zm-3.218-9.526c.879-1.099 1.48-2.593 1.313-4.11-1.272.056-2.863.88-3.778 1.954-.81.947-1.535 2.499-1.348 3.958 1.43.107 2.896-.72 3.813-1.802Z"/><path fill="url(#paint0_linear_6137_14087)" d="M130.9.194H63.332L89.797 40.39H130.9a4.758 4.758 0 0 0 4.755-4.748V4.945A4.758 4.758 0 0 0 130.9.195Z"/><path fill="#fff" d="M53.956 31.861h-2.283l-1.251-3.93h-4.347l-1.192 3.93H42.66l4.308-13.376h2.66l4.328 13.376Zm-3.911-5.578-1.131-3.492c-.12-.357-.345-1.198-.675-2.52h-.04c-.133.569-.345 1.409-.636 2.52l-1.111 3.492h3.593Zm14.968.637c0 1.64-.445 2.937-1.337 3.889-.798.847-1.79 1.27-2.974 1.27-1.278 0-2.197-.455-2.755-1.368v5.061h-2.143V25.386c0-1.03-.027-2.087-.08-3.17h1.886l.12 1.528h.04c.714-1.151 1.799-1.727 3.255-1.727 1.138 0 2.088.449 2.848 1.349.76.901 1.14 2.085 1.14 3.554Zm-2.183.078c0-.939-.212-1.713-.636-2.323-.463-.634-1.086-.952-1.866-.952a2.23 2.23 0 0 0-1.439.526c-.43.352-.711.811-.843 1.38a2.8 2.8 0 0 0-.1.652v1.61c0 .7.215 1.292.646 1.777.43.482.99.724 1.677.724.807 0 1.436-.312 1.885-.932.45-.622.676-1.443.676-2.462Zm13.28-.078c0 1.64-.445 2.937-1.337 3.889-.8.847-1.79 1.27-2.975 1.27-1.278 0-2.197-.455-2.755-1.368v5.061h-2.144V25.386c0-1.03-.027-2.087-.079-3.17h1.885l.12 1.528h.04c.714-1.151 1.799-1.727 3.256-1.727 1.137 0 2.087.449 2.849 1.349.758.901 1.14 2.085 1.14 3.554Zm-2.185.078c0-.939-.212-1.713-.636-2.323-.464-.634-1.084-.952-1.864-.952-.53 0-1.01.177-1.441.526-.43.352-.71.811-.843 1.38-.065.265-.1.482-.1.652v1.61c0 .7.216 1.292.644 1.777.43.481.99.724 1.68.724.808 0 1.436-.312 1.885-.932.45-.622.675-1.443.675-2.462Zm14.592 1.11c0 1.14-.398 2.065-1.19 2.78-.87.78-2.086 1.171-3.644 1.171-1.44 0-2.594-.277-3.465-.833l.496-1.786c.94.556 1.972.834 3.096.834.809 0 1.437-.183 1.885-.546.45-.364.677-.85.677-1.457 0-.544-.188-1-.557-1.37-.37-.37-.984-.715-1.846-1.032-2.342-.873-3.515-2.15-3.515-3.831 0-1.098.415-1.996 1.241-2.699.826-.702 1.922-1.052 3.286-1.052 1.217 0 2.232.212 3.037.635l-.538 1.747c-.758-.41-1.614-.615-2.57-.615-.757 0-1.35.186-1.774.556a1.59 1.59 0 0 0-.538 1.212c0 .527.206.966.616 1.31.356.316 1.006.66 1.945 1.03 1.152.465 1.998 1.006 2.54 1.627.546.621.818 1.396.818 2.32Zm7.105-4.284h-2.363v4.683c0 1.191.416 1.785 1.25 1.785.384 0 .702-.032.953-.1l.06 1.628c-.423.158-.979.237-1.668.237-.846 0-1.508-.258-1.985-.775-.476-.517-.715-1.382-.715-2.6V23.82h-1.408v-1.608h1.408v-1.766l2.105-.636v2.402h2.363v1.612Zm10.639 3.135c0 1.483-.424 2.7-1.271 3.652-.886.98-2.064 1.468-3.533 1.468-1.417 0-2.544-.47-3.385-1.407-.84-.94-1.26-2.124-1.26-3.552 0-1.495.434-2.72 1.3-3.671.867-.953 2.035-1.43 3.504-1.43 1.416 0 2.553.471 3.413 1.41.823.91 1.232 2.087 1.232 3.53Zm-2.222.05c0-.884-.191-1.642-.574-2.276-.449-.766-1.093-1.15-1.926-1.15-.859 0-1.518.384-1.966 1.15-.384.634-.575 1.405-.575 2.315 0 .885.191 1.645.575 2.277.464.766 1.11 1.149 1.948 1.149.819 0 1.461-.391 1.926-1.168.394-.65.592-1.412.592-2.298Zm9.193-2.909c-.223-.04-.45-.06-.676-.059-.754 0-1.337.284-1.748.854-.355.503-.534 1.138-.534 1.905v5.061h-2.144v-6.608a68.322 68.322 0 0 0-.062-3.036h1.867l.078 1.845h.06c.227-.634.583-1.146 1.071-1.529a2.595 2.595 0 0 1 1.55-.516c.198 0 .377.014.535.039l.003 2.044Zm9.586 2.482c.005.326-.021.651-.078.972h-6.431c.024.953.336 1.683.933 2.185.542.448 1.243.674 2.103.674.952 0 1.821-.151 2.602-.456l.336 1.487c-.913.398-1.991.596-3.234.596-1.496 0-2.671-.44-3.525-1.319-.853-.88-1.28-2.061-1.28-3.542 0-1.453.397-2.664 1.192-3.63.833-1.032 1.958-1.547 3.373-1.547 1.391 0 2.444.515 3.158 1.547.567.817.851 1.83.851 3.033Zm-2.044-.556c.015-.636-.126-1.184-.416-1.647-.371-.597-.942-.895-1.707-.895-.701 0-1.272.29-1.707.874-.356.463-.569 1.02-.634 1.666l4.464.002ZM45.455 13.754c-.596 0-1.112-.03-1.54-.079V7.208c.6-.092 1.206-.138 1.814-.136 2.458 0 3.59 1.209 3.59 3.18 0 2.274-1.337 3.502-3.864 3.502Zm.36-5.853c-.331 0-.614.02-.848.068v4.917c.126.02.37.029.712.029 1.61 0 2.527-.917 2.527-2.634 0-1.53-.83-2.38-2.39-2.38Zm7.032 5.902c-1.385 0-2.283-1.034-2.283-2.438 0-1.464.917-2.507 2.361-2.507 1.366 0 2.284.985 2.284 2.43 0 1.48-.946 2.515-2.362 2.515Zm.04-4.175c-.76 0-1.248.711-1.248 1.707 0 .975.497 1.687 1.238 1.687s1.239-.76 1.239-1.707c0-.965-.488-1.687-1.229-1.687Zm10.222-.673-1.483 4.74h-.966l-.614-2.058a15.613 15.613 0 0 1-.381-1.53h-.02c-.078.516-.225 1.034-.38 1.53l-.654 2.059h-.976l-1.396-4.74h1.083l.537 2.253c.127.537.233 1.043.322 1.522h.02c.077-.4.204-.898.39-1.512l.674-2.263h.858l.645 2.215c.155.537.282 1.063.38 1.56h.029c.068-.487.176-1.004.322-1.56l.576-2.215h1.034Zm5.46 4.74h-1.054v-2.721c0-.839-.322-1.259-.956-1.259-.625 0-1.054.537-1.054 1.161v2.82h-1.053V10.31c0-.419-.01-.868-.04-1.356h.927l.05.732h.029c.283-.506.858-.828 1.503-.828.995 0 1.649.76 1.649 2l-.001 2.838Zm2.905 0H70.42V6.78h1.055v6.916Zm3.842.108c-1.385 0-2.283-1.034-2.283-2.438 0-1.464.916-2.507 2.36-2.507 1.367 0 2.284.985 2.284 2.43 0 1.48-.947 2.515-2.361 2.515Zm.04-4.175c-.762 0-1.25.711-1.25 1.707 0 .975.499 1.687 1.238 1.687.742 0 1.239-.76 1.239-1.707 0-.965-.486-1.687-1.228-1.687Zm6.475 4.068-.077-.546h-.028c-.321.44-.79.653-1.386.653-.85 0-1.453-.595-1.453-1.395 0-1.17 1.014-1.775 2.77-1.775v-.087c0-.625-.33-.937-.983-.937-.468 0-.878.117-1.239.352l-.214-.693c.438-.273.985-.41 1.628-.41 1.238 0 1.864.653 1.864 1.96v1.747c0 .478.02.85.068 1.132l-.95-.001Zm-.145-2.361c-1.17 0-1.757.283-1.757.955 0 .498.302.741.722.741.536 0 1.035-.409 1.035-.965v-.731Zm6.143 2.36-.05-.76h-.028c-.303.575-.812.868-1.523.868-1.143 0-1.99-1.005-1.99-2.42 0-1.482.879-2.526 2.077-2.526.634 0 1.084.214 1.337.644h.021v-2.72h1.055v5.637c0 .458.011.888.04 1.278h-.939Zm-.156-2.789c0-.663-.44-1.229-1.11-1.229-.78 0-1.258.693-1.258 1.668 0 .955.495 1.61 1.237 1.61.663 0 1.131-.576 1.131-1.259v-.79Zm7.742 2.897c-1.385 0-2.282-1.034-2.282-2.438 0-1.464.917-2.507 2.36-2.507 1.367 0 2.284.985 2.284 2.43 0 1.48-.945 2.515-2.362 2.515Zm.04-4.175c-.761 0-1.249.711-1.249 1.707 0 .975.498 1.687 1.238 1.687.742 0 1.239-.76 1.239-1.707.002-.965-.486-1.687-1.229-1.687Zm7.988 4.068h-1.055v-2.722c0-.839-.321-1.259-.956-1.259-.624 0-1.052.537-1.052 1.161v2.82h-1.055V10.31c0-.419-.01-.868-.04-1.356h.928l.049.732h.029c.283-.506.859-.83 1.502-.83.996 0 1.65.762 1.65 2v2.84Zm7.089-3.95h-1.159v2.301c0 .586.203.879.613.879.186 0 .342-.02.468-.05l.029.8c-.204.079-.478.118-.818.118-.83 0-1.327-.458-1.327-1.658v-2.39h-.691v-.79h.691v-.869l1.035-.313v1.18h1.159v.791Zm5.578 3.95h-1.053v-2.702c0-.848-.32-1.278-.956-1.278-.546 0-1.054.371-1.054 1.122v2.858h-1.053V6.78h1.053v2.848h.021c.332-.517.812-.771 1.425-.771 1.004 0 1.617.78 1.617 2.02v2.819Zm5.715-2.117h-3.162c.02.897.614 1.404 1.494 1.404.467 0 .898-.078 1.278-.224l.164.732c-.449.195-.977.292-1.591.292-1.483 0-2.361-.937-2.361-2.39s.899-2.545 2.242-2.545c1.212 0 1.972.897 1.972 2.253.007.16-.005.32-.036.478Zm-.966-.751c0-.732-.369-1.248-1.043-1.248-.605 0-1.084.526-1.152 1.248h2.195Z"/><defs><linearGradient id="paint0_linear_6137_14087" x1="99.492" x2="99.492" y1="40.495" y2="-104.465" gradientUnits="userSpaceOnUse"><stop stop-color="#1A1A1A" stop-opacity=".1"/><stop offset=".123" stop-color="#212121" stop-opacity=".151"/><stop offset=".308" stop-color="#353535" stop-opacity=".227"/><stop offset=".532" stop-color="#575757" stop-opacity=".318"/><stop offset=".783" stop-color="#858585" stop-opacity=".421"/><stop offset="1" stop-color="#B3B3B3" stop-opacity=".51"/></linearGradient></defs></svg>